<?xml version="1.0" encoding="utf-8"?>
<svg version="1.0" width="512.000000pt" height="512.000000pt" viewBox="0 0 512.000000 512.000000" preserveAspectRatio="xMidYMid meet" xmlns="http://www.w3.org/2000/svg">
  <g transform="translate(0.000000,512.000000) scale(0.100000,-0.100000)" fill="#000000" stroke="none">
    <path d="M2330 5109 c-204 -19 -464 -77 -646 -144 -55 -20 -166 -69 -249 -110 -281 -138 -451 -260 -680 -490 -230 -229 -352 -399 -490 -680 -89 -181 -135 -304 -180 -479 -113 -445 -113 -847 0 -1292 45 -175 91 -298 180 -479 138 -281 260 -451 490 -680 229 -230 399 -352 680 -490 181 -89 304 -135 479 -180 445 -113 847 -113 1292 0 175 45 298 91 479 180 281 138 451 260 680 490 230 229 352 399 490 680 89 181 135 304 180 479 113 445 113 847 0 1292 -45 175 -91 298 -180 479 -138 281 -260 451 -490 680 -229 230 -399 352 -680 490 -181 89 -304 135 -479 180 -297 76 -595 101 -876 74z m880 -1063 c394 -94 632 -320 722 -684 32 -129 30 -322 -5 -453 -67 -257 -239 -459 -481 -569 -36 -17 -66 -33 -66 -36 0 -3 146 -282 325 -618 178 -337 327 -620 331 -629 6 -16 -31 -17 -538 -17 l-544 0 -269 555 -269 555 -178 0 -178 0 0 -555 0 -555 -490 0 -490 0 0 1515 0 1516 1028 -4 c943 -3 1033 -5 1102 -21z" style="fill: rgb(22, 37, 50);"/>
    <path d="M2060 3100 l0 -280 333 0 c374 0 403 4 474 65 128 109 129 320 3 427 -74 64 -102 68 -476 68 l-334 0 0 -280z" style="fill: rgb(22, 37, 50);"/>
  </g>
</svg>